<svg width="184" height="67" viewBox="0 0 184 67" fill="none" xmlns="http://www.w3.org/2000/svg">
<rect width="184" height="67" fill="black"/>
<path d="M52.8594 34.9141C52.8594 32.3125 54.0547 30.4141 56.375 28.9375C55.0391 27.0391 53.0703 26.0547 50.4688 25.8438C47.9375 25.6328 45.1953 27.25 44.2109 27.25C43.1562 27.25 40.7656 25.9141 38.8672 25.9141C34.9297 25.9844 30.7812 29.0078 30.7812 35.2656C30.7812 37.0938 31.0625 38.9922 31.7656 40.9609C32.6797 43.5625 35.9141 49.8906 39.2891 49.75C41.0469 49.75 42.3125 48.4844 44.6328 48.4844C46.8828 48.4844 48.0078 49.75 49.9766 49.75C53.4219 49.75 56.375 43.9844 57.2188 41.3828C52.6484 39.2031 52.8594 35.0547 52.8594 34.9141ZM48.9219 23.3828C50.8203 21.1328 50.6094 19.0234 50.6094 18.25C48.9219 18.3906 46.9531 19.4453 45.8281 20.7109C44.5625 22.1172 43.8594 23.875 44 25.7734C45.8281 25.9141 47.5156 25 48.9219 23.3828Z" fill="white"/>
<g clip-path="url(#clip0_531_777)">
<path d="M75.947 22.008H72.131L71.399 24H70.511L73.571 15.72H74.519L77.567 24H76.679L75.947 22.008ZM75.695 21.312L74.039 16.776L72.383 21.312H75.695ZM81.2431 23.184L83.4511 17.448H84.3391L81.7111 24H80.7631L78.1351 17.448H79.0351L81.2431 23.184ZM85.0936 20.712C85.0936 20.04 85.2256 19.452 85.4896 18.948C85.7616 18.436 86.1336 18.044 86.6056 17.772C87.0856 17.492 87.6256 17.352 88.2256 17.352C88.8496 17.352 89.3856 17.496 89.8336 17.784C90.2896 18.072 90.6176 18.44 90.8176 18.888V17.448H91.6576V24H90.8176V22.548C90.6096 22.996 90.2776 23.368 89.8216 23.664C89.3736 23.952 88.8376 24.096 88.2136 24.096C87.6216 24.096 87.0856 23.956 86.6056 23.676C86.1336 23.396 85.7616 23 85.4896 22.488C85.2256 21.976 85.0936 21.384 85.0936 20.712ZM90.8176 20.724C90.8176 20.196 90.7096 19.732 90.4936 19.332C90.2776 18.932 89.9816 18.624 89.6056 18.408C89.2376 18.192 88.8296 18.084 88.3816 18.084C87.9176 18.084 87.5016 18.188 87.1336 18.396C86.7656 18.604 86.4736 18.908 86.2576 19.308C86.0496 19.7 85.9456 20.168 85.9456 20.712C85.9456 21.248 86.0496 21.72 86.2576 22.128C86.4736 22.528 86.7656 22.836 87.1336 23.052C87.5016 23.26 87.9176 23.364 88.3816 23.364C88.8296 23.364 89.2376 23.256 89.6056 23.04C89.9816 22.824 90.2776 22.516 90.4936 22.116C90.7096 21.716 90.8176 21.252 90.8176 20.724ZM93.9952 16.212C93.8272 16.212 93.6832 16.152 93.5632 16.032C93.4432 15.912 93.3832 15.764 93.3832 15.588C93.3832 15.412 93.4432 15.268 93.5632 15.156C93.6832 15.036 93.8272 14.976 93.9952 14.976C94.1632 14.976 94.3072 15.036 94.4272 15.156C94.5472 15.268 94.6072 15.412 94.6072 15.588C94.6072 15.764 94.5472 15.912 94.4272 16.032C94.3072 16.152 94.1632 16.212 93.9952 16.212ZM94.4152 17.448V24H93.5752V17.448H94.4152ZM97.1574 15.12V24H96.3174V15.12H97.1574ZM98.6756 20.712C98.6756 20.04 98.8076 19.452 99.0716 18.948C99.3436 18.436 99.7156 18.044 100.188 17.772C100.668 17.492 101.208 17.352 101.808 17.352C102.432 17.352 102.968 17.496 103.416 17.784C103.872 18.072 104.2 18.44 104.4 18.888V17.448H105.24V24H104.4V22.548C104.192 22.996 103.86 23.368 103.404 23.664C102.956 23.952 102.42 24.096 101.796 24.096C101.204 24.096 100.668 23.956 100.188 23.676C99.7156 23.396 99.3436 23 99.0716 22.488C98.8076 21.976 98.6756 21.384 98.6756 20.712ZM104.4 20.724C104.4 20.196 104.292 19.732 104.076 19.332C103.86 18.932 103.564 18.624 103.188 18.408C102.82 18.192 102.412 18.084 101.964 18.084C101.5 18.084 101.084 18.188 100.716 18.396C100.348 18.604 100.056 18.908 99.8396 19.308C99.6316 19.7 99.5276 20.168 99.5276 20.712C99.5276 21.248 99.6316 21.72 99.8396 22.128C100.056 22.528 100.348 22.836 100.716 23.052C101.084 23.26 101.5 23.364 101.964 23.364C102.412 23.364 102.82 23.256 103.188 23.04C103.564 22.824 103.86 22.516 104.076 22.116C104.292 21.716 104.4 21.252 104.4 20.724ZM107.985 18.9C108.201 18.444 108.533 18.072 108.981 17.784C109.437 17.496 109.973 17.352 110.589 17.352C111.189 17.352 111.725 17.492 112.197 17.772C112.669 18.044 113.037 18.436 113.301 18.948C113.573 19.452 113.709 20.04 113.709 20.712C113.709 21.384 113.573 21.976 113.301 22.488C113.037 23 112.665 23.396 112.185 23.676C111.713 23.956 111.181 24.096 110.589 24.096C109.965 24.096 109.425 23.956 108.969 23.676C108.521 23.388 108.193 23.016 107.985 22.56V24H107.157V15.12H107.985V18.9ZM112.857 20.712C112.857 20.168 112.749 19.7 112.533 19.308C112.325 18.908 112.037 18.604 111.669 18.396C111.301 18.188 110.885 18.084 110.421 18.084C109.973 18.084 109.561 18.192 109.185 18.408C108.817 18.624 108.525 18.932 108.309 19.332C108.093 19.732 107.985 20.196 107.985 20.724C107.985 21.252 108.093 21.716 108.309 22.116C108.525 22.516 108.817 22.824 109.185 23.04C109.561 23.256 109.973 23.364 110.421 23.364C110.885 23.364 111.301 23.26 111.669 23.052C112.037 22.836 112.325 22.528 112.533 22.128C112.749 21.72 112.857 21.248 112.857 20.712ZM116.095 15.12V24H115.255V15.12H116.095ZM123.925 20.388C123.925 20.676 123.917 20.896 123.901 21.048H118.465C118.489 21.544 118.609 21.968 118.825 22.32C119.041 22.672 119.325 22.94 119.677 23.124C120.029 23.3 120.413 23.388 120.829 23.388C121.373 23.388 121.829 23.256 122.197 22.992C122.573 22.728 122.821 22.372 122.941 21.924H123.829C123.669 22.564 123.325 23.088 122.797 23.496C122.277 23.896 121.621 24.096 120.829 24.096C120.213 24.096 119.661 23.96 119.173 23.688C118.685 23.408 118.301 23.016 118.021 22.512C117.749 22 117.613 21.404 117.613 20.724C117.613 20.044 117.749 19.448 118.021 18.936C118.293 18.424 118.673 18.032 119.161 17.76C119.649 17.488 120.205 17.352 120.829 17.352C121.453 17.352 121.997 17.488 122.461 17.76C122.933 18.032 123.293 18.4 123.541 18.864C123.797 19.32 123.925 19.828 123.925 20.388ZM123.073 20.364C123.081 19.876 122.981 19.46 122.773 19.116C122.573 18.772 122.297 18.512 121.945 18.336C121.593 18.16 121.209 18.072 120.793 18.072C120.169 18.072 119.637 18.272 119.197 18.672C118.757 19.072 118.513 19.636 118.465 20.364H123.073ZM131.827 17.328C132.611 17.328 133.251 17.572 133.747 18.06C134.243 18.54 134.491 19.24 134.491 20.16V24H133.663V20.256C133.663 19.544 133.483 19 133.123 18.624C132.771 18.248 132.287 18.06 131.671 18.06C131.039 18.06 130.535 18.26 130.159 18.66C129.783 19.06 129.595 19.648 129.595 20.424V24H128.755V17.448H129.595V18.564C129.803 18.164 130.103 17.86 130.495 17.652C130.887 17.436 131.331 17.328 131.827 17.328ZM139.217 24.096C138.601 24.096 138.045 23.96 137.549 23.688C137.061 23.408 136.673 23.016 136.385 22.512C136.105 22 135.965 21.404 135.965 20.724C135.965 20.044 136.109 19.452 136.397 18.948C136.685 18.436 137.077 18.044 137.573 17.772C138.069 17.492 138.625 17.352 139.241 17.352C139.857 17.352 140.413 17.492 140.909 17.772C141.413 18.044 141.805 18.436 142.085 18.948C142.373 19.452 142.517 20.044 142.517 20.724C142.517 21.396 142.373 21.988 142.085 22.5C141.797 23.012 141.401 23.408 140.897 23.688C140.393 23.96 139.833 24.096 139.217 24.096ZM139.217 23.364C139.649 23.364 140.049 23.268 140.417 23.076C140.785 22.876 141.081 22.58 141.305 22.188C141.537 21.788 141.653 21.3 141.653 20.724C141.653 20.148 141.541 19.664 141.317 19.272C141.093 18.872 140.797 18.576 140.429 18.384C140.061 18.184 139.661 18.084 139.229 18.084C138.797 18.084 138.397 18.184 138.029 18.384C137.661 18.576 137.365 18.872 137.141 19.272C136.925 19.664 136.817 20.148 136.817 20.724C136.817 21.3 136.925 21.788 137.141 22.188C137.365 22.58 137.657 22.876 138.017 23.076C138.385 23.268 138.785 23.364 139.217 23.364ZM152.688 17.448L150.636 24H149.796L147.984 18.504L146.172 24H145.32L143.268 17.448H144.12L145.752 23.148L147.588 17.448H148.428L150.24 23.16L151.86 17.448H152.688Z" fill="white"/>
<path d="M78.9182 45.21H73.4462L72.4382 48H70.7102L75.2462 35.526H77.1362L81.6542 48H79.9262L78.9182 45.21ZM78.4502 43.878L76.1822 37.542L73.9142 43.878H78.4502ZM85.2691 39.954C85.5931 39.39 86.0731 38.922 86.7091 38.55C87.3571 38.166 88.1071 37.974 88.9591 37.974C89.8351 37.974 90.6271 38.184 91.3351 38.604C92.0551 39.024 92.6191 39.618 93.0271 40.386C93.4351 41.142 93.6391 42.024 93.6391 43.032C93.6391 44.028 93.4351 44.916 93.0271 45.696C92.6191 46.476 92.0551 47.082 91.3351 47.514C90.6271 47.946 89.8351 48.162 88.9591 48.162C88.1191 48.162 87.3751 47.976 86.7271 47.604C86.0911 47.22 85.6051 46.746 85.2691 46.182V52.68H83.6311V38.136H85.2691V39.954ZM91.9651 43.032C91.9651 42.288 91.8151 41.64 91.5151 41.088C91.2151 40.536 90.8071 40.116 90.2911 39.828C89.7871 39.54 89.2291 39.396 88.6171 39.396C88.0171 39.396 87.4591 39.546 86.9431 39.846C86.4391 40.134 86.0311 40.56 85.7191 41.124C85.4191 41.676 85.2691 42.318 85.2691 43.05C85.2691 43.794 85.4191 44.448 85.7191 45.012C86.0311 45.564 86.4391 45.99 86.9431 46.29C87.4591 46.578 88.0171 46.722 88.6171 46.722C89.2291 46.722 89.7871 46.578 90.2911 46.29C90.8071 45.99 91.2151 45.564 91.5151 45.012C91.8151 44.448 91.9651 43.788 91.9651 43.032ZM97.4332 39.954C97.7572 39.39 98.2372 38.922 98.8732 38.55C99.5212 38.166 100.271 37.974 101.123 37.974C101.999 37.974 102.791 38.184 103.499 38.604C104.219 39.024 104.783 39.618 105.191 40.386C105.599 41.142 105.803 42.024 105.803 43.032C105.803 44.028 105.599 44.916 105.191 45.696C104.783 46.476 104.219 47.082 103.499 47.514C102.791 47.946 101.999 48.162 101.123 48.162C100.283 48.162 99.5392 47.976 98.8912 47.604C98.2552 47.22 97.7692 46.746 97.4332 46.182V52.68H95.7952V38.136H97.4332V39.954ZM104.129 43.032C104.129 42.288 103.979 41.64 103.679 41.088C103.379 40.536 102.971 40.116 102.455 39.828C101.951 39.54 101.393 39.396 100.781 39.396C100.181 39.396 99.6232 39.546 99.1072 39.846C98.6032 40.134 98.1952 40.56 97.8832 41.124C97.5832 41.676 97.4332 42.318 97.4332 43.05C97.4332 43.794 97.5832 44.448 97.8832 45.012C98.1952 45.564 98.6032 45.99 99.1072 46.29C99.6232 46.578 100.181 46.722 100.781 46.722C101.393 46.722 101.951 46.578 102.455 46.29C102.971 45.99 103.379 45.564 103.679 45.012C103.979 44.448 104.129 43.788 104.129 43.032ZM116.736 48.126C115.908 48.126 115.164 47.982 114.504 47.694C113.856 47.394 113.346 46.986 112.974 46.47C112.602 45.942 112.41 45.336 112.398 44.652H114.144C114.204 45.24 114.444 45.738 114.864 46.146C115.296 46.542 115.92 46.74 116.736 46.74C117.516 46.74 118.128 46.548 118.572 46.164C119.028 45.768 119.256 45.264 119.256 44.652C119.256 44.172 119.124 43.782 118.86 43.482C118.596 43.182 118.266 42.954 117.87 42.798C117.474 42.642 116.94 42.474 116.268 42.294C115.44 42.078 114.774 41.862 114.27 41.646C113.778 41.43 113.352 41.094 112.992 40.638C112.644 40.17 112.47 39.546 112.47 38.766C112.47 38.082 112.644 37.476 112.992 36.948C113.34 36.42 113.826 36.012 114.45 35.724C115.086 35.436 115.812 35.292 116.628 35.292C117.804 35.292 118.764 35.586 119.508 36.174C120.264 36.762 120.69 37.542 120.786 38.514H118.986C118.926 38.034 118.674 37.614 118.23 37.254C117.786 36.882 117.198 36.696 116.466 36.696C115.782 36.696 115.224 36.876 114.792 37.236C114.36 37.584 114.144 38.076 114.144 38.712C114.144 39.168 114.27 39.54 114.522 39.828C114.786 40.116 115.104 40.338 115.476 40.494C115.86 40.638 116.394 40.806 117.078 40.998C117.906 41.226 118.572 41.454 119.076 41.682C119.58 41.898 120.012 42.24 120.372 42.708C120.732 43.164 120.912 43.788 120.912 44.58C120.912 45.192 120.75 45.768 120.426 46.308C120.102 46.848 119.622 47.286 118.986 47.622C118.35 47.958 117.6 48.126 116.736 48.126ZM125.321 39.486V45.3C125.321 45.78 125.423 46.122 125.627 46.326C125.831 46.518 126.185 46.614 126.689 46.614H127.895V48H126.419C125.507 48 124.823 47.79 124.367 47.37C123.911 46.95 123.683 46.26 123.683 45.3V39.486H122.405V38.136H123.683V35.652H125.321V38.136H127.895V39.486H125.321ZM134.181 48.162C133.257 48.162 132.417 47.952 131.661 47.532C130.917 47.112 130.329 46.518 129.897 45.75C129.477 44.97 129.267 44.07 129.267 43.05C129.267 42.042 129.483 41.154 129.915 40.386C130.359 39.606 130.959 39.012 131.715 38.604C132.471 38.184 133.317 37.974 134.253 37.974C135.189 37.974 136.035 38.184 136.791 38.604C137.547 39.012 138.141 39.6 138.573 40.368C139.017 41.136 139.239 42.03 139.239 43.05C139.239 44.07 139.011 44.97 138.555 45.75C138.111 46.518 137.505 47.112 136.737 47.532C135.969 47.952 135.117 48.162 134.181 48.162ZM134.181 46.722C134.769 46.722 135.321 46.584 135.837 46.308C136.353 46.032 136.767 45.618 137.079 45.066C137.403 44.514 137.565 43.842 137.565 43.05C137.565 42.258 137.409 41.586 137.097 41.034C136.785 40.482 136.377 40.074 135.873 39.81C135.369 39.534 134.823 39.396 134.235 39.396C133.635 39.396 133.083 39.534 132.579 39.81C132.087 40.074 131.691 40.482 131.391 41.034C131.091 41.586 130.941 42.258 130.941 43.05C130.941 43.854 131.085 44.532 131.373 45.084C131.673 45.636 132.069 46.05 132.561 46.326C133.053 46.59 133.593 46.722 134.181 46.722ZM143.031 39.738C143.319 39.174 143.727 38.736 144.255 38.424C144.795 38.112 145.449 37.956 146.217 37.956V39.648H145.785C143.949 39.648 143.031 40.644 143.031 42.636V48H141.393V38.136H143.031V39.738ZM157.108 42.69C157.108 43.002 157.09 43.332 157.054 43.68H149.17C149.23 44.652 149.56 45.414 150.16 45.966C150.772 46.506 151.51 46.776 152.374 46.776C153.082 46.776 153.67 46.614 154.138 46.29C154.618 45.954 154.954 45.51 155.146 44.958H156.91C156.646 45.906 156.118 46.68 155.326 47.28C154.534 47.868 153.55 48.162 152.374 48.162C151.438 48.162 150.598 47.952 149.854 47.532C149.122 47.112 148.546 46.518 148.126 45.75C147.706 44.97 147.496 44.07 147.496 43.05C147.496 42.03 147.7 41.136 148.108 40.368C148.516 39.6 149.086 39.012 149.818 38.604C150.562 38.184 151.414 37.974 152.374 37.974C153.31 37.974 154.138 38.178 154.858 38.586C155.578 38.994 156.13 39.558 156.514 40.278C156.91 40.986 157.108 41.79 157.108 42.69ZM155.416 42.348C155.416 41.724 155.278 41.19 155.002 40.746C154.726 40.29 154.348 39.948 153.868 39.72C153.4 39.48 152.878 39.36 152.302 39.36C151.474 39.36 150.766 39.624 150.178 40.152C149.602 40.68 149.272 41.412 149.188 42.348H155.416Z" fill="white"/>
</g>
<defs>
<clipPath id="clip0_531_777">
<rect width="88" height="43" fill="white" transform="translate(70 12)"/>
</clipPath>
</defs>
</svg>
