<svg width="185" height="67" viewBox="0 0 185 67" fill="none" xmlns="http://www.w3.org/2000/svg">
<rect width="185" height="67" fill="black"/>
<path d="M48.043 32.0195L51.5586 28.5039L35.0938 19.0117L48.043 32.0195ZM31.7539 18.25C30.9922 18.6602 30.4648 19.4219 30.4648 20.3594V46.1992C30.4648 47.1367 30.9922 47.8984 31.7539 48.25L46.7539 33.25L31.7539 18.25ZM56.6562 31.4922L53.1992 29.5L49.332 33.25L53.1992 37.0586L56.7148 35.0664C57.7695 34.2461 57.7695 32.3125 56.6562 31.4922ZM35.0938 47.4883L51.5586 38.0547L48.043 34.5391L35.0938 47.4883Z" fill="white"/>
<g clip-path="url(#clip0_531_782)">
<path d="M75.947 22.008H72.131L71.399 24H70.511L73.571 15.72H74.519L77.567 24H76.679L75.947 22.008ZM75.695 21.312L74.039 16.776L72.383 21.312H75.695ZM81.2431 23.184L83.4511 17.448H84.3391L81.7111 24H80.7631L78.1351 17.448H79.0351L81.2431 23.184ZM85.0936 20.712C85.0936 20.04 85.2256 19.452 85.4896 18.948C85.7616 18.436 86.1336 18.044 86.6056 17.772C87.0856 17.492 87.6256 17.352 88.2256 17.352C88.8496 17.352 89.3856 17.496 89.8336 17.784C90.2896 18.072 90.6176 18.44 90.8176 18.888V17.448H91.6576V24H90.8176V22.548C90.6096 22.996 90.2776 23.368 89.8216 23.664C89.3736 23.952 88.8376 24.096 88.2136 24.096C87.6216 24.096 87.0856 23.956 86.6056 23.676C86.1336 23.396 85.7616 23 85.4896 22.488C85.2256 21.976 85.0936 21.384 85.0936 20.712ZM90.8176 20.724C90.8176 20.196 90.7096 19.732 90.4936 19.332C90.2776 18.932 89.9816 18.624 89.6056 18.408C89.2376 18.192 88.8296 18.084 88.3816 18.084C87.9176 18.084 87.5016 18.188 87.1336 18.396C86.7656 18.604 86.4736 18.908 86.2576 19.308C86.0496 19.7 85.9456 20.168 85.9456 20.712C85.9456 21.248 86.0496 21.72 86.2576 22.128C86.4736 22.528 86.7656 22.836 87.1336 23.052C87.5016 23.26 87.9176 23.364 88.3816 23.364C88.8296 23.364 89.2376 23.256 89.6056 23.04C89.9816 22.824 90.2776 22.516 90.4936 22.116C90.7096 21.716 90.8176 21.252 90.8176 20.724ZM93.9952 16.212C93.8272 16.212 93.6832 16.152 93.5632 16.032C93.4432 15.912 93.3832 15.764 93.3832 15.588C93.3832 15.412 93.4432 15.268 93.5632 15.156C93.6832 15.036 93.8272 14.976 93.9952 14.976C94.1632 14.976 94.3072 15.036 94.4272 15.156C94.5472 15.268 94.6072 15.412 94.6072 15.588C94.6072 15.764 94.5472 15.912 94.4272 16.032C94.3072 16.152 94.1632 16.212 93.9952 16.212ZM94.4152 17.448V24H93.5752V17.448H94.4152ZM97.1574 15.12V24H96.3174V15.12H97.1574ZM98.6756 20.712C98.6756 20.04 98.8076 19.452 99.0716 18.948C99.3436 18.436 99.7156 18.044 100.188 17.772C100.668 17.492 101.208 17.352 101.808 17.352C102.432 17.352 102.968 17.496 103.416 17.784C103.872 18.072 104.2 18.44 104.4 18.888V17.448H105.24V24H104.4V22.548C104.192 22.996 103.86 23.368 103.404 23.664C102.956 23.952 102.42 24.096 101.796 24.096C101.204 24.096 100.668 23.956 100.188 23.676C99.7156 23.396 99.3436 23 99.0716 22.488C98.8076 21.976 98.6756 21.384 98.6756 20.712ZM104.4 20.724C104.4 20.196 104.292 19.732 104.076 19.332C103.86 18.932 103.564 18.624 103.188 18.408C102.82 18.192 102.412 18.084 101.964 18.084C101.5 18.084 101.084 18.188 100.716 18.396C100.348 18.604 100.056 18.908 99.8396 19.308C99.6316 19.7 99.5276 20.168 99.5276 20.712C99.5276 21.248 99.6316 21.72 99.8396 22.128C100.056 22.528 100.348 22.836 100.716 23.052C101.084 23.26 101.5 23.364 101.964 23.364C102.412 23.364 102.82 23.256 103.188 23.04C103.564 22.824 103.86 22.516 104.076 22.116C104.292 21.716 104.4 21.252 104.4 20.724ZM107.985 18.9C108.201 18.444 108.533 18.072 108.981 17.784C109.437 17.496 109.973 17.352 110.589 17.352C111.189 17.352 111.725 17.492 112.197 17.772C112.669 18.044 113.037 18.436 113.301 18.948C113.573 19.452 113.709 20.04 113.709 20.712C113.709 21.384 113.573 21.976 113.301 22.488C113.037 23 112.665 23.396 112.185 23.676C111.713 23.956 111.181 24.096 110.589 24.096C109.965 24.096 109.425 23.956 108.969 23.676C108.521 23.388 108.193 23.016 107.985 22.56V24H107.157V15.12H107.985V18.9ZM112.857 20.712C112.857 20.168 112.749 19.7 112.533 19.308C112.325 18.908 112.037 18.604 111.669 18.396C111.301 18.188 110.885 18.084 110.421 18.084C109.973 18.084 109.561 18.192 109.185 18.408C108.817 18.624 108.525 18.932 108.309 19.332C108.093 19.732 107.985 20.196 107.985 20.724C107.985 21.252 108.093 21.716 108.309 22.116C108.525 22.516 108.817 22.824 109.185 23.04C109.561 23.256 109.973 23.364 110.421 23.364C110.885 23.364 111.301 23.26 111.669 23.052C112.037 22.836 112.325 22.528 112.533 22.128C112.749 21.72 112.857 21.248 112.857 20.712ZM116.095 15.12V24H115.255V15.12H116.095ZM123.925 20.388C123.925 20.676 123.917 20.896 123.901 21.048H118.465C118.489 21.544 118.609 21.968 118.825 22.32C119.041 22.672 119.325 22.94 119.677 23.124C120.029 23.3 120.413 23.388 120.829 23.388C121.373 23.388 121.829 23.256 122.197 22.992C122.573 22.728 122.821 22.372 122.941 21.924H123.829C123.669 22.564 123.325 23.088 122.797 23.496C122.277 23.896 121.621 24.096 120.829 24.096C120.213 24.096 119.661 23.96 119.173 23.688C118.685 23.408 118.301 23.016 118.021 22.512C117.749 22 117.613 21.404 117.613 20.724C117.613 20.044 117.749 19.448 118.021 18.936C118.293 18.424 118.673 18.032 119.161 17.76C119.649 17.488 120.205 17.352 120.829 17.352C121.453 17.352 121.997 17.488 122.461 17.76C122.933 18.032 123.293 18.4 123.541 18.864C123.797 19.32 123.925 19.828 123.925 20.388ZM123.073 20.364C123.081 19.876 122.981 19.46 122.773 19.116C122.573 18.772 122.297 18.512 121.945 18.336C121.593 18.16 121.209 18.072 120.793 18.072C120.169 18.072 119.637 18.272 119.197 18.672C118.757 19.072 118.513 19.636 118.465 20.364H123.073ZM131.827 17.328C132.611 17.328 133.251 17.572 133.747 18.06C134.243 18.54 134.491 19.24 134.491 20.16V24H133.663V20.256C133.663 19.544 133.483 19 133.123 18.624C132.771 18.248 132.287 18.06 131.671 18.06C131.039 18.06 130.535 18.26 130.159 18.66C129.783 19.06 129.595 19.648 129.595 20.424V24H128.755V17.448H129.595V18.564C129.803 18.164 130.103 17.86 130.495 17.652C130.887 17.436 131.331 17.328 131.827 17.328ZM139.217 24.096C138.601 24.096 138.045 23.96 137.549 23.688C137.061 23.408 136.673 23.016 136.385 22.512C136.105 22 135.965 21.404 135.965 20.724C135.965 20.044 136.109 19.452 136.397 18.948C136.685 18.436 137.077 18.044 137.573 17.772C138.069 17.492 138.625 17.352 139.241 17.352C139.857 17.352 140.413 17.492 140.909 17.772C141.413 18.044 141.805 18.436 142.085 18.948C142.373 19.452 142.517 20.044 142.517 20.724C142.517 21.396 142.373 21.988 142.085 22.5C141.797 23.012 141.401 23.408 140.897 23.688C140.393 23.96 139.833 24.096 139.217 24.096ZM139.217 23.364C139.649 23.364 140.049 23.268 140.417 23.076C140.785 22.876 141.081 22.58 141.305 22.188C141.537 21.788 141.653 21.3 141.653 20.724C141.653 20.148 141.541 19.664 141.317 19.272C141.093 18.872 140.797 18.576 140.429 18.384C140.061 18.184 139.661 18.084 139.229 18.084C138.797 18.084 138.397 18.184 138.029 18.384C137.661 18.576 137.365 18.872 137.141 19.272C136.925 19.664 136.817 20.148 136.817 20.724C136.817 21.3 136.925 21.788 137.141 22.188C137.365 22.58 137.657 22.876 138.017 23.076C138.385 23.268 138.785 23.364 139.217 23.364ZM152.688 17.448L150.636 24H149.796L147.984 18.504L146.172 24H145.32L143.268 17.448H144.12L145.752 23.148L147.588 17.448H148.428L150.24 23.16L151.86 17.448H152.688Z" fill="white"/>
<path d="M80.0386 39.126C80.0386 40.17 79.6786 41.04 78.9586 41.736C78.2506 42.42 77.1646 42.762 75.7006 42.762H73.2886V48H71.6506V35.454H75.7006C77.1166 35.454 78.1906 35.796 78.9226 36.48C79.6666 37.164 80.0386 38.046 80.0386 39.126ZM75.7006 41.412C76.6126 41.412 77.2846 41.214 77.7166 40.818C78.1486 40.422 78.3646 39.858 78.3646 39.126C78.3646 37.578 77.4766 36.804 75.7006 36.804H73.2886V41.412H75.7006ZM83.7125 34.68V48H82.0745V34.68H83.7125ZM85.8922 43.032C85.8922 42.024 86.0962 41.142 86.5042 40.386C86.9122 39.618 87.4702 39.024 88.1782 38.604C88.8982 38.184 89.6962 37.974 90.5722 37.974C91.4362 37.974 92.1862 38.16 92.8222 38.532C93.4582 38.904 93.9322 39.372 94.2442 39.936V38.136H95.9002V48H94.2442V46.164C93.9202 46.74 93.4342 47.22 92.7862 47.604C92.1502 47.976 91.4062 48.162 90.5542 48.162C89.6782 48.162 88.8862 47.946 88.1782 47.514C87.4702 47.082 86.9122 46.476 86.5042 45.696C86.0962 44.916 85.8922 44.028 85.8922 43.032ZM94.2442 43.05C94.2442 42.306 94.0942 41.658 93.7942 41.106C93.4942 40.554 93.0862 40.134 92.5702 39.846C92.0662 39.546 91.5082 39.396 90.8962 39.396C90.2842 39.396 89.7262 39.54 89.2222 39.828C88.7182 40.116 88.3162 40.536 88.0162 41.088C87.7162 41.64 87.5662 42.288 87.5662 43.032C87.5662 43.788 87.7162 44.448 88.0162 45.012C88.3162 45.564 88.7182 45.99 89.2222 46.29C89.7262 46.578 90.2842 46.722 90.8962 46.722C91.5082 46.722 92.0662 46.578 92.5702 46.29C93.0862 45.99 93.4942 45.564 93.7942 45.012C94.0942 44.448 94.2442 43.794 94.2442 43.05ZM107.164 38.136L101.224 52.644H99.5322L101.476 47.892L97.4982 38.136H99.3162L102.412 46.128L105.472 38.136H107.164ZM117.588 48.126C116.76 48.126 116.016 47.982 115.356 47.694C114.708 47.394 114.198 46.986 113.826 46.47C113.454 45.942 113.262 45.336 113.25 44.652H114.996C115.056 45.24 115.296 45.738 115.716 46.146C116.148 46.542 116.772 46.74 117.588 46.74C118.368 46.74 118.98 46.548 119.424 46.164C119.88 45.768 120.108 45.264 120.108 44.652C120.108 44.172 119.976 43.782 119.712 43.482C119.448 43.182 119.118 42.954 118.722 42.798C118.326 42.642 117.792 42.474 117.12 42.294C116.292 42.078 115.626 41.862 115.122 41.646C114.63 41.43 114.204 41.094 113.844 40.638C113.496 40.17 113.322 39.546 113.322 38.766C113.322 38.082 113.496 37.476 113.844 36.948C114.192 36.42 114.678 36.012 115.302 35.724C115.938 35.436 116.664 35.292 117.48 35.292C118.656 35.292 119.616 35.586 120.36 36.174C121.116 36.762 121.542 37.542 121.638 38.514H119.838C119.778 38.034 119.526 37.614 119.082 37.254C118.638 36.882 118.05 36.696 117.318 36.696C116.634 36.696 116.076 36.876 115.644 37.236C115.212 37.584 114.996 38.076 114.996 38.712C114.996 39.168 115.122 39.54 115.374 39.828C115.638 40.116 115.956 40.338 116.328 40.494C116.712 40.638 117.246 40.806 117.93 40.998C118.758 41.226 119.424 41.454 119.928 41.682C120.432 41.898 120.864 42.24 121.224 42.708C121.584 43.164 121.764 43.788 121.764 44.58C121.764 45.192 121.602 45.768 121.278 46.308C120.954 46.848 120.474 47.286 119.838 47.622C119.202 47.958 118.452 48.126 117.588 48.126ZM126.172 39.486V45.3C126.172 45.78 126.274 46.122 126.478 46.326C126.682 46.518 127.036 46.614 127.54 46.614H128.746V48H127.27C126.358 48 125.674 47.79 125.218 47.37C124.762 46.95 124.534 46.26 124.534 45.3V39.486H123.256V38.136H124.534V35.652H126.172V38.136H128.746V39.486H126.172ZM135.033 48.162C134.109 48.162 133.269 47.952 132.513 47.532C131.769 47.112 131.181 46.518 130.749 45.75C130.329 44.97 130.119 44.07 130.119 43.05C130.119 42.042 130.335 41.154 130.767 40.386C131.211 39.606 131.811 39.012 132.567 38.604C133.323 38.184 134.169 37.974 135.105 37.974C136.041 37.974 136.887 38.184 137.643 38.604C138.399 39.012 138.993 39.6 139.425 40.368C139.869 41.136 140.091 42.03 140.091 43.05C140.091 44.07 139.863 44.97 139.407 45.75C138.963 46.518 138.357 47.112 137.589 47.532C136.821 47.952 135.969 48.162 135.033 48.162ZM135.033 46.722C135.621 46.722 136.173 46.584 136.689 46.308C137.205 46.032 137.619 45.618 137.931 45.066C138.255 44.514 138.417 43.842 138.417 43.05C138.417 42.258 138.261 41.586 137.949 41.034C137.637 40.482 137.229 40.074 136.725 39.81C136.221 39.534 135.675 39.396 135.087 39.396C134.487 39.396 133.935 39.534 133.431 39.81C132.939 40.074 132.543 40.482 132.243 41.034C131.943 41.586 131.793 42.258 131.793 43.05C131.793 43.854 131.937 44.532 132.225 45.084C132.525 45.636 132.921 46.05 133.413 46.326C133.905 46.59 134.445 46.722 135.033 46.722ZM143.882 39.738C144.17 39.174 144.578 38.736 145.106 38.424C145.646 38.112 146.3 37.956 147.068 37.956V39.648H146.636C144.8 39.648 143.882 40.644 143.882 42.636V48H142.244V38.136H143.882V39.738ZM157.959 42.69C157.959 43.002 157.941 43.332 157.905 43.68H150.021C150.081 44.652 150.411 45.414 151.011 45.966C151.623 46.506 152.361 46.776 153.225 46.776C153.933 46.776 154.521 46.614 154.989 46.29C155.469 45.954 155.805 45.51 155.997 44.958H157.761C157.497 45.906 156.969 46.68 156.177 47.28C155.385 47.868 154.401 48.162 153.225 48.162C152.289 48.162 151.449 47.952 150.705 47.532C149.973 47.112 149.397 46.518 148.977 45.75C148.557 44.97 148.347 44.07 148.347 43.05C148.347 42.03 148.551 41.136 148.959 40.368C149.367 39.6 149.937 39.012 150.669 38.604C151.413 38.184 152.265 37.974 153.225 37.974C154.161 37.974 154.989 38.178 155.709 38.586C156.429 38.994 156.981 39.558 157.365 40.278C157.761 40.986 157.959 41.79 157.959 42.69ZM156.267 42.348C156.267 41.724 156.129 41.19 155.853 40.746C155.577 40.29 155.199 39.948 154.719 39.72C154.251 39.48 153.729 39.36 153.153 39.36C152.325 39.36 151.617 39.624 151.029 40.152C150.453 40.68 150.123 41.412 150.039 42.348H156.267Z" fill="white"/>
</g>
<defs>
<clipPath id="clip0_531_782">
<rect width="89" height="43" fill="white" transform="translate(70 12)"/>
</clipPath>
</defs>
</svg>
