<svg width="40" height="40" viewBox="0 0 40 40" fill="none" xmlns="http://www.w3.org/2000/svg">
<circle cx="20" cy="20" r="20" fill="white"/>
<path d="M19.9986 17.3971C18.565 17.3971 17.3951 18.567 17.3951 20.0006C17.3951 21.4342 18.565 22.6041 19.9986 22.6041C21.4322 22.6041 22.6021 21.4342 22.6021 20.0006C22.6021 18.567 21.4322 17.3971 19.9986 17.3971ZM27.8072 20.0006C27.8072 18.9225 27.817 17.8541 27.7564 16.7779C27.6959 15.5279 27.4107 14.4185 26.4967 13.5045C25.5807 12.5885 24.4732 12.3053 23.2232 12.2447C22.1451 12.1842 21.0768 12.1939 20.0006 12.1939C18.9225 12.1939 17.8541 12.1842 16.7779 12.2447C15.5279 12.3053 14.4185 12.5904 13.5045 13.5045C12.5885 14.4205 12.3053 15.5279 12.2447 16.7779C12.1842 17.856 12.1939 18.9244 12.1939 20.0006C12.1939 21.0768 12.1842 22.1471 12.2447 23.2232C12.3053 24.4732 12.5904 25.5826 13.5045 26.4967C14.4205 27.4127 15.5279 27.6959 16.7779 27.7564C17.8561 27.817 18.9244 27.8072 20.0006 27.8072C21.0787 27.8072 22.1471 27.817 23.2232 27.7564C24.4732 27.6959 25.5826 27.4107 26.4967 26.4967C27.4127 25.5807 27.6959 24.4732 27.7564 23.2232C27.8189 22.1471 27.8072 21.0787 27.8072 20.0006ZM19.9986 24.0064C17.7818 24.0064 15.9928 22.2174 15.9928 20.0006C15.9928 17.7838 17.7818 15.9947 19.9986 15.9947C22.2154 15.9947 24.0045 17.7838 24.0045 20.0006C24.0045 22.2174 22.2154 24.0064 19.9986 24.0064ZM24.1686 16.7662C23.651 16.7662 23.233 16.3482 23.233 15.8307C23.233 15.3131 23.651 14.8951 24.1686 14.8951C24.6861 14.8951 25.1041 15.3131 25.1041 15.8307C25.1043 15.9536 25.0802 16.0753 25.0332 16.1889C24.9862 16.3024 24.9173 16.4056 24.8304 16.4925C24.7435 16.5794 24.6403 16.6483 24.5268 16.6953C24.4132 16.7423 24.2915 16.7664 24.1686 16.7662Z" fill="black"/>
</svg>
