<svg width="40" height="40" viewBox="0 0 40 40" fill="none" xmlns="http://www.w3.org/2000/svg">
<circle cx="20" cy="20" r="20" fill="white"/>
<path d="M29.7178 14.9091C29.0567 15.2021 28.3466 15.4 27.6001 15.4894C28.3704 15.0285 28.9466 14.3031 29.2214 13.4485C28.4977 13.8784 27.7056 14.181 26.8796 14.3431C26.3242 13.75 25.5885 13.3569 24.7867 13.2249C23.985 13.0928 23.1621 13.2291 22.4457 13.6126C21.7294 13.9961 21.1597 14.6054 20.8251 15.3459C20.4905 16.0864 20.4098 16.9166 20.5954 17.7077C19.129 17.6341 17.6944 17.2529 16.3849 16.589C15.0753 15.9251 13.9199 14.9932 12.9938 13.8539C12.6771 14.4001 12.4951 15.0334 12.4951 15.7079C12.4947 16.3151 12.6442 16.9131 12.9304 17.4486C13.2165 17.9842 13.6304 18.4408 14.1354 18.778C13.5498 18.7594 12.9771 18.6012 12.465 18.3165V18.364C12.4649 19.2156 12.7595 20.041 13.2987 20.7002C13.838 21.3593 14.5887 21.8116 15.4234 21.9803C14.8802 22.1273 14.3106 22.149 13.7578 22.0437C13.9933 22.7764 14.4521 23.4172 15.0699 23.8763C15.6876 24.3354 16.4335 24.5898 17.2031 24.6039C15.8967 25.6294 14.2833 26.1857 12.6225 26.1833C12.3283 26.1834 12.0344 26.1662 11.7422 26.1318C13.428 27.2157 15.3905 27.791 17.3947 27.7888C24.1793 27.7888 27.8882 22.1695 27.8882 17.296C27.8882 17.1377 27.8843 16.9778 27.8771 16.8194C28.5986 16.2977 29.2213 15.6517 29.7162 14.9115L29.7178 14.9091Z" fill="black"/>
</svg>
